<svg width="68.929688" height="55.459961" viewBox="0 0 68.9297 55.46" fill="none" xmlns="http://www.w3.org/2000/svg" xmlns:xlink="http://www.w3.org/1999/xlink">
	<desc>
			Created with Pixso.
	</desc>
	<defs>
		<clipPath id="clip1374_36">
			<rect id="Logo" rx="0.000000" width="67.930000" height="54.459999" transform="translate(0.500000 0.500000)" fill="white" fill-opacity="0"/>
		</clipPath>
	</defs>
	<rect id="Logo" rx="0.000000" width="67.930000" height="54.459999" transform="translate(0.500000 0.500000)" fill="#FFFFFF" fill-opacity="0"/>
	<g clip-path="url(#clip1374_36)">
		<path id="Vector" d="M39.14 16.87L37.83 15.87C37.63 15.7 37.37 15.62 37.11 15.65C36.84 15.67 36.6 15.8 36.43 16.01L18.3 36.83L18.58 37.14L23.07 33C22.92 32.93 22.8 32.82 22.72 32.68C22.65 32.54 22.62 32.38 22.66 32.22C22.69 32.06 22.77 31.92 22.9 31.82C23.03 31.72 23.18 31.66 23.34 31.67C23.49 31.67 23.63 31.71 23.75 31.8C23.87 31.88 23.95 32.01 24 32.15L29.91 26.66C30 26.58 30.12 26.54 30.23 26.54C30.35 26.54 30.46 26.58 30.55 26.66L30.85 26.88C30.96 26.95 31.08 26.98 31.21 26.97C31.33 26.95 31.44 26.89 31.52 26.8L39.26 18.12C39.35 18.03 39.41 17.93 39.45 17.81C39.49 17.7 39.5 17.58 39.49 17.46C39.48 17.34 39.44 17.23 39.38 17.13C39.32 17.02 39.24 16.93 39.14 16.87Z" fill="#303030" fill-opacity="1.000000" fill-rule="nonzero"/>
		<path id="Vector" d="M47.66 22.73C43.7 25.55 39.25 27.63 34.54 28.88C29.87 30.06 25.09 30.77 20.28 31C20.37 31.71 20.55 32.4 20.79 33.08C23.52 35.54 44 31.34 48 26.48C48.85 25.47 47.66 22.73 47.66 22.73ZM23.35 33C23.21 33 23.08 32.96 22.97 32.88C22.86 32.81 22.77 32.7 22.72 32.58C22.67 32.45 22.65 32.31 22.68 32.18C22.71 32.05 22.77 31.93 22.86 31.83C22.96 31.74 23.08 31.67 23.21 31.65C23.34 31.62 23.48 31.64 23.61 31.69C23.73 31.74 23.84 31.83 23.91 31.94C23.99 32.05 24.03 32.18 24.03 32.31C24.03 32.4 24.01 32.49 23.98 32.58C23.94 32.66 23.89 32.74 23.83 32.8C23.77 32.86 23.69 32.91 23.61 32.95C23.52 32.98 23.44 33 23.35 33Z" fill="#303030" fill-opacity="1.000000" fill-rule="nonzero"/>
		<path id="Vector" d="M4 21.28L4.16 20.6L6.76 21.18C6.97 21.58 7.1 22.02 7.15 22.47C7.2 22.94 7.16 23.42 7.06 23.88C6.93 24.53 6.63 25.13 6.2 25.62C5.78 26.09 5.25 26.44 4.66 26.62C4.04 26.81 3.39 26.84 2.77 26.7C2.14 26.56 1.56 26.26 1.1 25.81C0.64 25.39 0.31 24.85 0.15 24.25C-0.03 23.59 -0.03 22.9 0.15 22.25C0.25 21.76 0.45 21.29 0.72 20.87C0.97 20.48 1.31 20.16 1.72 19.93L2.08 20.49C1.73 20.7 1.43 20.98 1.21 21.31C0.98 21.65 0.83 22.03 0.76 22.42C0.63 22.94 0.64 23.48 0.79 24C0.92 24.48 1.19 24.92 1.56 25.26C1.93 25.63 2.41 25.88 2.93 26C3.43 26.14 3.95 26.14 4.45 26C4.93 25.84 5.37 25.56 5.7 25.18C6.05 24.78 6.3 24.3 6.41 23.77C6.57 23.14 6.53 22.47 6.29 21.87L4 21.28Z" fill="#303030" fill-opacity="1.000000" fill-rule="nonzero"/>
		<path id="Vector" d="M9.66 15L7.33 18.11L8.33 19.9L7.87 20.52L4.16 13.77L4.59 13.18L12.12 14.8L11.66 15.42L9.66 15ZM9 14.84L5 13.94L7 17.53L9 14.84Z" fill="#303030" fill-opacity="1.000000" fill-rule="nonzero"/>
		<path id="Vector" d="M9 8.54L9.59 8.09L13.41 13.2L16.54 10.85L16.92 11.36L13.2 14.15L9 8.54Z" fill="#303030" fill-opacity="1.000000" fill-rule="nonzero"/>
		<path id="Vector" d="M15.29 4.38L15.96 4.07L18.6 9.85L22.17 8.23L22.43 8.81L18.2 10.75L15.29 4.38Z" fill="#303030" fill-opacity="1.000000" fill-rule="nonzero"/>
		<path id="Vector" d="M28.47 6.68L28.62 7.31L23.8 8.44L22.21 1.62L26.88 0.53L27.03 1.15L23.03 2.08L23.59 4.5L27.12 3.67L27.26 4.29L23.74 5.1L24.33 7.64L28.47 6.68Z" fill="#303030" fill-opacity="1.000000" fill-rule="nonzero"/>
		<path id="Vector" d="M35.34 6.92L33.67 4.72C33.49 4.74 33.3 4.74 33.12 4.72L31.24 4.78L31.3 7.01L30.57 7.01L30.33 0.01L33 0C33.75 -0.07 34.5 0.13 35.12 0.56C35.37 0.77 35.58 1.04 35.73 1.34C35.87 1.64 35.94 1.97 35.93 2.3C35.96 2.8 35.83 3.29 35.57 3.7C35.28 4.1 34.87 4.4 34.41 4.55L36.16 6.9L35.34 6.92ZM34.64 3.64C34.82 3.47 34.96 3.27 35.05 3.04C35.14 2.81 35.18 2.57 35.16 2.32C35.16 2.08 35.11 1.84 35.01 1.62C34.91 1.4 34.75 1.2 34.57 1.04C34.1 0.73 33.55 0.59 33 0.64L31.09 0.7L31.21 4.2L33.08 4.15C33.64 4.17 34.2 3.99 34.64 3.64Z" fill="#303030" fill-opacity="1.000000" fill-rule="nonzero"/>
		<path id="Vector" d="M40.63 5.06L40.27 7.45L39.54 7.34L39.91 5L37.84 0L38.62 0.11L40.39 4.38L43.39 0.84L44.09 1L40.63 5.06Z" fill="#303030" fill-opacity="1.000000" fill-rule="nonzero"/>
		<path id="Vector" d="M50.53 4.65L51.39 5.78L51.01 6.08L50.14 4.92L49.59 6.23L49.17 6.05L49.74 4.74L48.29 4.93L48.29 4.45L49.71 4.29L48.83 3.16L49.22 2.86L50 4L50.54 2.68L50.96 2.86L50.46 4.2L51.89 4L51.89 4.49L50.53 4.65Z" fill="#303030" fill-opacity="1.000000" fill-rule="nonzero"/>
		<path id="Vector" d="M53.87 12.71C53.63 12.34 53.48 11.93 53.44 11.5L54.03 11.24C54.07 11.63 54.2 12.01 54.41 12.36C54.63 12.74 54.92 13.08 55.27 13.36C55.62 13.7 56.08 13.92 56.57 13.99C56.74 14 56.92 13.97 57.08 13.91C57.25 13.84 57.39 13.73 57.51 13.6C57.59 13.5 57.65 13.4 57.69 13.28C57.73 13.16 57.75 13.04 57.74 12.92C57.7 12.67 57.62 12.44 57.5 12.23C57.31 11.92 57.1 11.62 56.89 11.34C56.62 10.99 56.38 10.62 56.17 10.24C56 9.95 55.91 9.63 55.91 9.3C55.91 8.92 56.04 8.57 56.3 8.3C56.51 8.03 56.8 7.83 57.13 7.72C57.49 7.62 57.87 7.62 58.24 7.72C58.7 7.88 59.13 8.12 59.51 8.45C59.81 8.7 60.09 9 60.32 9.33C60.53 9.63 60.69 9.97 60.79 10.33L60.22 10.63C60.12 10.29 59.97 9.97 59.78 9.69C59.58 9.43 59.36 9.19 59.11 9C58.75 8.66 58.3 8.44 57.82 8.39C57.64 8.37 57.46 8.4 57.29 8.47C57.13 8.54 56.99 8.65 56.88 8.8C56.79 8.89 56.73 8.99 56.69 9.11C56.65 9.23 56.63 9.35 56.65 9.47C56.67 9.73 56.75 9.97 56.89 10.19C57.03 10.42 57.23 10.72 57.5 11.08C57.76 11.42 58 11.78 58.22 12.16C58.38 12.44 58.47 12.76 58.49 13.1C58.49 13.47 58.35 13.82 58.1 14.1C57.88 14.36 57.58 14.56 57.26 14.67C56.89 14.77 56.51 14.77 56.15 14.67C55.67 14.51 55.24 14.27 54.87 13.95C54.46 13.59 54.12 13.17 53.87 12.71Z" fill="#303030" fill-opacity="1.000000" fill-rule="nonzero"/>
		<path id="Vector" d="M63.92 14.17L62.51 12.17L63.04 11.8L66.29 16.44L65.76 16.81L64.35 14.81L59.13 18.46L58.71 17.85L63.92 14.17Z" fill="#303030" fill-opacity="1.000000" fill-rule="nonzero"/>
		<path id="Vector" d="M61.69 22.39C61.86 21.78 62.21 21.24 62.69 20.83C63.15 20.41 63.71 20.12 64.33 20C64.95 19.85 65.6 19.88 66.21 20.06C66.79 20.26 67.32 20.6 67.74 21.06C68.17 21.56 68.46 22.16 68.58 22.8C68.75 23.44 68.75 24.1 68.58 24.74C68.4 25.34 68.06 25.88 67.58 26.29C67.11 26.72 66.53 27.02 65.9 27.16C65.28 27.29 64.63 27.26 64.02 27.08C63.42 26.89 62.89 26.54 62.49 26.08C62.06 25.58 61.76 24.99 61.64 24.35C61.48 23.7 61.5 23.02 61.69 22.39ZM63 25.56C63.33 25.95 63.76 26.23 64.25 26.38C64.74 26.52 65.27 26.54 65.78 26.42C66.28 26.31 66.75 26.08 67.15 25.74C67.51 25.4 67.79 24.96 67.94 24.49C68.08 23.98 68.09 23.45 67.98 22.93C67.86 22.42 67.62 21.95 67.29 21.54C66.94 21.16 66.49 20.88 66 20.74C65.49 20.6 64.96 20.6 64.46 20.74C63.95 20.83 63.47 21.07 63.1 21.42C62.72 21.77 62.45 22.2 62.31 22.68C62.17 23.19 62.17 23.73 62.31 24.24C62.41 24.73 62.65 25.19 63 25.56Z" fill="#303030" fill-opacity="1.000000" fill-rule="nonzero"/>
		<path id="Vector" d="M60.93 34L63.52 33C63.52 32.81 63.58 32.64 63.62 32.45L64.12 30.64L62 30.09L62.19 29.38L68.95 31.19L68.27 33.72C68.11 34.45 67.7 35.11 67.11 35.58C66.83 35.77 66.52 35.89 66.19 35.94C65.86 35.99 65.52 35.96 65.21 35.86C64.72 35.75 64.29 35.48 63.98 35.1C63.67 34.72 63.5 34.24 63.5 33.75L60.74 34.75L60.93 34ZM64.28 34.28C64.39 34.49 64.55 34.67 64.74 34.82C64.93 34.97 65.15 35.08 65.39 35.15C65.62 35.21 65.87 35.22 66.11 35.19C66.35 35.15 66.58 35.07 66.79 34.95C67.23 34.59 67.53 34.09 67.64 33.54L68.12 31.74L64.73 30.83L64.25 32.63C64.06 33.16 64.07 33.75 64.28 34.28Z" fill="#303030" fill-opacity="1.000000" fill-rule="nonzero"/>
		<path id="Vector" d="M57.33 40.43L56.83 40.04L59.83 36.09L65.41 40.33L62.5 44.16L62 43.77L64.45 40.54L62.45 39.03L60.25 41.91L59.75 41.54L62 38.65L59.92 37.08L57.33 40.43Z" fill="#303030" fill-opacity="1.000000" fill-rule="nonzero"/>
		<path id="Vector" d="M55 48.41L53.57 48.49L53.57 48.01L55 48L54.23 46.81L54.62 46.56L55.37 47.76L56 46.42L56.43 46.65L55.75 47.91L57.18 47.83L57.18 48.32L55.73 48.32L56.5 49.51L56.11 49.76L55.35 48.56L54.69 49.86L54.27 49.62L55 48.41Z" fill="#303030" fill-opacity="1.000000" fill-rule="nonzero"/>
		<path id="Vector" d="M42 47.61L43.21 48.28C43.41 47.89 43.69 47.54 44.04 47.27C44.38 47 44.78 46.8 45.21 46.7C45.6 46.57 46.02 46.53 46.44 46.57C46.79 46.59 47.14 46.72 47.44 46.93C47.7 47.13 47.9 47.41 48 47.73C48.12 48.12 48.09 48.54 47.94 48.93C47.68 49.44 47.35 49.91 46.94 50.32C47.26 50.49 47.57 50.71 47.85 50.97C48.03 51.16 48.17 51.4 48.25 51.66C48.31 51.86 48.31 52.07 48.26 52.27C48.22 52.47 48.13 52.66 48 52.83C47.73 53.21 47.33 53.48 46.87 53.6C46.48 53.75 46.03 53.75 45.64 53.6C45.46 53.52 45.3 53.4 45.18 53.25C45.05 53.11 44.96 52.93 44.91 52.75C44.81 52.41 44.84 52.06 44.99 51.75C45.21 51.29 45.52 50.88 45.87 50.52L43.47 49.18C43.37 49.65 43.35 50.13 43.41 50.61L42.79 50.61C42.75 50.02 42.82 49.43 43 48.87L41.74 48.17L42 47.61ZM43.74 48.61L46.39 50.08C46.73 49.74 47.02 49.35 47.24 48.93C47.34 48.64 47.34 48.31 47.24 48.03C47.19 47.85 47.1 47.69 46.98 47.56C46.86 47.43 46.71 47.33 46.54 47.28C46.12 47.13 45.67 47.13 45.25 47.28C44.92 47.36 44.6 47.53 44.33 47.75C44.06 47.98 43.84 48.26 43.7 48.58L43.74 48.61ZM47.5 52.61C47.56 52.49 47.6 52.37 47.62 52.24C47.63 52.12 47.62 51.99 47.58 51.87C47.51 51.67 47.4 51.49 47.25 51.35C47 51.13 46.72 50.95 46.43 50.8C46.12 51.09 45.86 51.43 45.64 51.8C45.51 52.02 45.49 52.29 45.56 52.54C45.59 52.65 45.64 52.76 45.72 52.85C45.79 52.94 45.89 53.01 46 53.07C46.25 53.16 46.53 53.16 46.79 53.07C47.06 52.99 47.29 52.83 47.46 52.6L47.5 52.61Z" fill="#303030" fill-opacity="1.000000" fill-rule="nonzero"/>
		<path id="Vector" d="M29.8 55.31L29.94 48.31L30.65 48.31L30.54 53.91L33.38 49.25L33.73 49.25L36.39 54L36.5 48.42L37.21 48.42L37.07 55.42L36.46 55.42L33.52 50.2L30.41 55.33L29.8 55.31Z" fill="#303030" fill-opacity="1.000000" fill-rule="nonzero"/>
		<path id="Vector" d="M26.33 48C26.78 48.43 27.11 48.99 27.27 49.6C27.43 50.21 27.42 50.85 27.24 51.46C27.07 52.07 26.74 52.64 26.29 53.09C25.84 53.52 25.28 53.83 24.67 53.97C24.03 54.11 23.37 54.09 22.74 53.9C22.11 53.75 21.53 53.44 21.05 53C20.6 52.56 20.28 52.02 20.12 51.41C19.97 50.79 19.98 50.14 20.16 49.52C20.33 48.91 20.67 48.34 21.12 47.9C21.56 47.46 22.11 47.15 22.71 47C23.34 46.85 24.01 46.87 24.63 47.05C25.27 47.22 25.85 47.54 26.33 48ZM22.91 47.65C22.43 47.76 21.98 48.01 21.62 48.37C21.26 48.73 20.99 49.19 20.87 49.7C20.73 50.2 20.73 50.72 20.87 51.23C20.98 51.71 21.24 52.16 21.59 52.51C21.97 52.87 22.44 53.14 22.95 53.28C23.45 53.4 23.99 53.4 24.5 53.28C24.98 53.15 25.43 52.91 25.79 52.55C26.16 52.19 26.42 51.73 26.55 51.23C26.7 50.72 26.7 50.19 26.55 49.68C26.43 49.2 26.17 48.76 25.82 48.4C25.44 48.04 24.97 47.77 24.46 47.65C23.95 47.51 23.42 47.51 22.91 47.65Z" fill="#303030" fill-opacity="1.000000" fill-rule="nonzero"/>
		<path id="Vector" d="M15.34 43L15.61 45.75C15.79 45.82 15.95 45.9 16.11 46L17.75 46.94L18.84 45L19.5 45.37L16 51.4L13.71 50.09C13.04 49.75 12.51 49.18 12.21 48.49C12.11 48.17 12.07 47.84 12.11 47.51C12.15 47.18 12.26 46.86 12.43 46.59C12.67 46.15 13.04 45.8 13.48 45.59C13.94 45.4 14.45 45.36 14.92 45.48L14.63 42.54L15.34 43ZM14.21 46.16C13.97 46.21 13.75 46.32 13.56 46.47C13.36 46.61 13.2 46.8 13.08 47.01C12.96 47.22 12.88 47.45 12.86 47.69C12.83 47.93 12.85 48.17 12.91 48.41C13.15 48.92 13.56 49.34 14.06 49.6L15.67 50.53L17.42 47.53L15.81 46.6C15.35 46.25 14.78 46.07 14.21 46.11L14.21 46.16Z" fill="#303030" fill-opacity="1.000000" fill-rule="nonzero"/>
		<path id="Vector" d="M9.42 38.3L9.87 37.86L13.33 41.41L8.33 46.29L5 42.85L5.45 42.4L8.29 45.3L10 43.58L7.51 41L8 40.54L10.53 43.14L12.38 41.33L9.42 38.3Z" fill="#303030" fill-opacity="1.000000" fill-rule="nonzero"/>
		<path id="Vector" d="M2 34.38L2.24 33L2.7 33.06L2.44 34.49L3.77 34L3.93 34.43L2.58 34.9L3.69 35.84L3.37 36.2L2.3 35.2L2.05 36.62L1.57 36.53L1.85 35.11L0.51 35.59L0.36 35.2L1.7 34.73L0.59 33.8L0.91 33.43L2 34.38Z" fill="#303030" fill-opacity="1.000000" fill-rule="nonzero"/>
	</g>
</svg>
